<?xml version="1.0" encoding="utf-8"?>
<!-- Generator: Adobe Illustrator 19.0.0, SVG Export Plug-In . SVG Version: 6.00 Build 0)  -->
<svg version="1.1" id="Capa_1" xmlns="http://www.w3.org/2000/svg" xmlns:xlink="http://www.w3.org/1999/xlink" x="0px" y="0px"
	 width="60px" height="60px" viewBox="-469 471 60 60" style="enable-background:new -469 471 60 60;" xml:space="preserve">
<style type="text/css">
	.st0{fill:#FFFFFF;}
</style>
<g>
	<path class="st0" d="M-450.1,530.4l28-28c0.4-0.4,0.6-0.9,0.6-1.4s-0.2-1-0.6-1.4l-28-28c-0.4-0.4-0.9-0.6-1.4-0.6s-1,0.2-1.4,0.6
		l-3,3c-0.4,0.4-0.6,0.9-0.6,1.4s0.2,1,0.6,1.4l23.6,23.6l-23.6,23.6c-0.4,0.4-0.6,0.9-0.6,1.4s0.2,1,0.6,1.4l3,3
		c0.4,0.4,0.9,0.6,1.4,0.6C-450.9,531-450.5,530.8-450.1,530.4z"/>
</g>
</svg>
