<?xml version="1.0" encoding="utf-8"?>
<!-- Generator: Adobe Illustrator 19.0.0, SVG Export Plug-In . SVG Version: 6.00 Build 0)  -->
<svg version="1.1" id="Capa_1" xmlns="http://www.w3.org/2000/svg" xmlns:xlink="http://www.w3.org/1999/xlink" x="0px" y="0px"
	 viewBox="-275 367 60 60" style="enable-background:new -275 367 60 60;" xml:space="preserve">
<style type="text/css">
	.st0{fill:#FFFFFF;}
	.st1{fill:#6F8898;}
</style>
<g>
	<path class="st0" d="M-725.1,897.4l28-28c0.4-0.4,0.6-0.9,0.6-1.4s-0.2-1-0.6-1.4l-28-28c-0.4-0.4-0.9-0.6-1.4-0.6s-1,0.2-1.4,0.6
		l-3,3c-0.4,0.4-0.6,0.9-0.6,1.4s0.2,1,0.6,1.4l23.6,23.6l-23.6,23.6c-0.4,0.4-0.6,0.9-0.6,1.4s0.2,1,0.6,1.4l3,3
		c0.4,0.4,0.9,0.6,1.4,0.6C-725.9,898-725.5,897.8-725.1,897.4z"/>
</g>
<g>
	<path class="st1" d="M-274.4,387.4l28,28c0.4,0.4,0.9,0.6,1.4,0.6s1-0.2,1.4-0.6l28-28c0.4-0.4,0.6-0.9,0.6-1.4s-0.2-1-0.6-1.4
		l-3-3c-0.4-0.4-0.9-0.6-1.4-0.6s-1,0.2-1.4,0.6l-23.6,23.6l-23.6-23.6c-0.4-0.4-0.9-0.6-1.4-0.6s-1,0.2-1.4,0.6l-3,3
		c-0.4,0.4-0.6,0.9-0.6,1.4C-275,386.6-274.8,387-274.4,387.4z"/>
</g>
</svg>
