<?xml version="1.0" encoding="utf-8"?>
<!-- Generator: Adobe Illustrator 19.0.0, SVG Export Plug-In . SVG Version: 6.00 Build 0)  -->
<svg version="1.1" id="Capa_1" xmlns="http://www.w3.org/2000/svg" xmlns:xlink="http://www.w3.org/1999/xlink" x="0px" y="0px"
	 viewBox="-275 367 60 60" style="enable-background:new -275 367 60 60;" xml:space="preserve">
<style type="text/css">
	.st0{fill:#FFFFFF;}
	.st1{fill:#6F8898;}
</style>
<g>
	<path class="st0" d="M-1000.1,1264.4l28-28c0.4-0.4,0.6-0.9,0.6-1.4s-0.2-1-0.6-1.4l-28-28c-0.4-0.4-0.9-0.6-1.4-0.6
		s-1,0.2-1.4,0.6l-3,3c-0.4,0.4-0.6,0.9-0.6,1.4s0.2,1,0.6,1.4l23.6,23.6l-23.6,23.6c-0.4,0.4-0.6,0.9-0.6,1.4s0.2,1,0.6,1.4l3,3
		c0.4,0.4,0.9,0.6,1.4,0.6C-1000.9,1265-1000.5,1264.8-1000.1,1264.4z"/>
</g>
<g>
	<path class="st1" d="M-272.6,401.3h29.9c0.6,0,1.1-0.2,1.4-0.6c0.4-0.4,0.6-0.9,0.6-1.4V369c0-0.6-0.2-1.1-0.6-1.4
		c-0.4-0.4-0.9-0.6-1.4-0.6h-4.3c-0.6,0-1.1,0.2-1.4,0.6c-0.4,0.4-0.6,0.9-0.6,1.4v24h-23.6c-0.6,0-1.1,0.2-1.4,0.6
		c-0.4,0.4-0.6,0.9-0.6,1.4v4.3c0,0.6,0.2,1.1,0.6,1.4C-273.6,401.2-273.2,401.3-272.6,401.3z"/>
</g>
<g>
	<path class="st1" d="M-217.4,392.7h-29.9c-0.6,0-1.1,0.2-1.4,0.6c-0.4,0.4-0.6,0.9-0.6,1.4V425c0,0.6,0.2,1.1,0.6,1.4
		c0.4,0.4,0.9,0.6,1.4,0.6h4.3c0.6,0,1.1-0.2,1.4-0.6c0.4-0.4,0.6-0.9,0.6-1.4v-24h23.6c0.6,0,1.1-0.2,1.4-0.6
		c0.4-0.4,0.6-0.9,0.6-1.4v-4.3c0-0.6-0.2-1.1-0.6-1.4C-216.4,392.8-216.8,392.7-217.4,392.7z"/>
</g>
</svg>
