<?xml version="1.0" encoding="utf-8"?>
<!-- Generator: Adobe Illustrator 19.0.0, SVG Export Plug-In . SVG Version: 6.00 Build 0)  -->
<svg version="1.1" id="Layer_1" xmlns="http://www.w3.org/2000/svg" xmlns:xlink="http://www.w3.org/1999/xlink" x="0px" y="0px"
	 viewBox="-49 141 512 512" style="enable-background:new -49 141 512 512;" xml:space="preserve">
<style type="text/css">
	.st0{fill:#6F8898;}
</style>
<g>
	<path class="st0" d="M252.1,653h197.7c3.8,0,7.1-1.4,9.5-3.8c2.4-2.4,3.8-5.7,3.8-9.5V334.7c0-3.8-1.4-7.1-3.8-9.5
		s-5.7-3.8-9.5-3.8h-28.4c-3.8,0-7.1,1.4-9.5,3.8s-3.8,5.7-3.8,9.5v263.5H252.1c-3.8,0-7.1,1.4-9.5,3.8c-2.4,2.4-3.8,5.7-3.8,9.5
		v28.4c0,3.8,1.4,7.1,3.8,9.5C245.4,652.1,248.3,653,252.1,653z"/>
</g>
<g>
	<path class="st0" d="M463,351.9V154.2c0-3.8-1.4-7.1-3.8-9.5c-2.4-2.4-5.7-3.8-9.5-3.8H249.4c-3.8,0-7.1,1.4-9.5,3.8
		c-2.4,2.4-3.8,5.7-3.8,9.5v28.4c0,3.8,1.4,7.1,3.8,9.5s5.7,3.8,9.5,3.8h158.8v156.1c0,3.8,1.4,7.1,3.8,9.5s5.7,3.8,9.5,3.8h28.4
		c3.8,0,7.1-1.4,9.5-3.8C462.1,358.6,463,355.7,463,351.9z"/>
</g>
<g>
	<path class="st0" d="M197.2,547.1L337,407.3c2.7-2.7,4-6,4-9.4c0-3.3-1.3-6.7-4-9.4L195.3,246.9c-2.7-2.7-6-4-9.4-4s-6.7,1.3-9.4,4
		L156.5,267c-2.7,2.7-4,6-4,9.4c0,3.3,1.3,6.7,4,9.4l112.3,112.3L158.4,508.3c-2.7,2.7-4,6-4,9.4s1.3,6.7,4,9.4l20.1,20.1
		c2.7,2.7,6,4,9.4,4C191.9,551.1,194.5,549.8,197.2,547.1z"/>
</g>
<g>
	<path class="st0" d="M286.9,424.4c0-3.8-1.4-48.7-3.8-51.1c-2.4-2.4-5.7-3.8-9.5-3.8H-35.8c-3.8,0-7.1,1.4-9.5,3.8
		s-3.8,5.7-3.8,9.5v28.4c0,3.8,1.4,7.1,3.8,9.5c2.4,2.4,5.7,3.8,9.5,3.8h225.9H286.9z"/>
</g>
</svg>
