<?xml version="1.0" encoding="utf-8"?>
<!-- Generator: Adobe Illustrator 19.0.0, SVG Export Plug-In . SVG Version: 6.00 Build 0)  -->
<svg version="1.1" id="Layer_1" xmlns="http://www.w3.org/2000/svg" xmlns:xlink="http://www.w3.org/1999/xlink" x="0px" y="0px"
	 viewBox="-55 147 500 500" style="enable-background:new -55 147 500 500;" xml:space="preserve">
<style type="text/css">
	.st0{fill:#FFFFFF;stroke:#FFFFFF;stroke-width:10;stroke-miterlimit:10;}
	.st1{fill:#FFFFFF;stroke:#FFFFFF;stroke-width:4;stroke-miterlimit:10;}
	.st2{fill:#FFFFFF;}
</style>
<g id="XMLID_2_">
	<path id="XMLID_58_" class="st0" d="M155.9,215.1c4,0,7.9,0,11.9,0c2.1,0.5,4.2,1,6.3,1.5c14.3,3.7,26.7,11.2,38.7,19.6
		c17,12,29.7,27.2,37,46.9c2.4,6.6,3.8,13.3,1.7,20.2c-0.5,1.6,0.1,2.2,1.7,2.8c4.1,1.3,8.3,2.6,12.2,4.5
		c11.6,5.4,20.5,13.5,23.6,26.5c1.6,6.5,1.1,13.1-0.2,19.8c1.1,0.4,2.2,0.9,3.2,1.3c5.9,2.2,11.3,5.4,15.8,9.8
		c15,14.8,19.1,32.7,14.4,52.9c-1.7,7.2-1.7,7,5.2,10.2c4.3,2,8.9,3.8,12.3,6.8c13.2,11.8,18.2,27.1,16.9,44.4
		c-0.9,11.3-6,20.5-16.2,26c-5.7,3.1-11.5,6.1-17.6,8.2c-18.1,6.1-36.9,7.8-55.8,8.4c-31.6,1-63.1-1-94.2-6.9
		c-17.4-3.3-34.7-3.3-52,1.1c-10.8,2.8-21.6,5.4-32.9,5.6c-14.3,0.2-27.8-2.4-39.7-11c-6.9-5-11.8-11.3-13.1-20.1
		c-0.4-2.8-1.1-5.5-1.7-8.3c0-4.4,0-8.7,0-13.1c0.2-0.7,0.5-1.4,0.6-2.1c2.6-16.3,10-29.7,24.3-38.4c4.1-2.5,8.9-4.1,13.4-6.1
		c-9-33,7.9-60.9,33.1-67.3c0-0.1,0-0.2,0-0.3c-0.3-0.9-0.6-1.8-0.8-2.7c-3.5-11.4-3.5-22.7,1.4-33.8c6.2-14,16.9-23.6,30.6-29.8
		c4.7-2.1,6.1-4.7,5.4-9.3c-1.4-9.1,1.7-17.1,6.7-24.5c2-3,3.7-6.1,5.4-9.3c1.8-3.5,2.1-7.2,1-11c-1-3.5-2.2-7-3.2-10.6
		C149.3,220.6,150.3,218.1,155.9,215.1z"/>
	<path id="XMLID_57_" class="st1" d="M271,386c-0.7-3-1.4-8.5-3.1-13.6c-2.9-8.6-8-15.6-16.9-19c-11.3-4.3-24.4,0-32,10.2
		c-11.2,15.2-10.2,39.8,2.2,54.1c13.1,15.1,34.5,12.9,44.3-4.6C269.7,405.5,271,397.2,271,386z"/>
	<path id="XMLID_56_" class="st1" d="M180.9,389.5c-1-5.3-1.5-10.7-3-15.9c-2.4-8.3-6.9-15.4-15.1-19.4c-12-5.8-27.2-1.3-35,10.3
		c-10.3,15.3-9.2,38.3,2.5,52.7c12.1,14.8,32.3,13.9,42.9-1.9C178.4,407.6,180.3,398.8,180.9,389.5z"/>
	<path id="XMLID_55_" class="st1" d="M240.4,457c-5.1-0.3-10.3-0.7-15.4-1c-24.9-1.2-49.7-0.5-74.6,1.6c-1.8,0.1-2.2,1-1.6,2.3
		c1,2.2,1.9,4.8,3.6,6.4c7.9,7.5,16.7,13.6,27,17.2c13.9,4.8,27.3,2.4,40.4-3.3c7-3.1,13.3-7.3,18-13.5
		C239.9,463.9,241.2,460.9,240.4,457z"/>
	<path id="XMLID_44_" class="st1" d="M254.1,389.8c-0.1,5.1-1,10.3-4.1,14.9c-4.1,6.1-11.6,6.6-16.5,1.1c-2.9-3.3-4.1-7.3-4.6-11.6
		c-0.8-6.6-0.2-13.1,3.4-18.9c4.3-7,13-7.2,17.8-0.5C253.2,379.2,254.1,384.2,254.1,389.8z"/>
	<path id="XMLID_43_" class="st1" d="M163.6,390c0,4.5-0.9,9.2-3.2,13.5c-4.4,8.1-14.2,8.4-18.6,0.4c-5.1-9.3-5-19,0.1-28.3
		c4.8-8.8,14.5-6,18.1-0.2C162.8,379.7,163.7,384.5,163.6,390z"/>
	<g id="XMLID_1_">
		<path id="XMLID_15_" class="st2" d="M195,165c31.3,0,61.7,6.1,90.3,18.2c27.6,11.7,52.4,28.4,73.7,49.8
			c21.3,21.3,38,46.1,49.7,73.7c12.1,28.6,18.2,59,18.2,90.3s-6.1,61.7-18.2,90.3C397,514.9,380.3,539.7,359,561
			c-21.3,21.3-46.1,38-73.7,49.7c-28.6,12.1-59,18.2-90.3,18.2s-61.7-6.1-90.3-18.2C77.1,599,52.3,582.3,31,561
			c-21.3-21.3-38-46.1-49.7-73.7C-30.9,458.7-37,428.3-37,397s6.1-61.7,18.2-90.3C-7.1,279.1,9.6,254.3,31,233
			c21.3-21.3,46.1-38,73.7-49.7C133.3,171.1,163.7,165,195,165 M195,147C56.9,147-55,258.9-55,397S56.9,647,195,647
			s250-111.9,250-250S333.1,147,195,147L195,147z"/>
	</g>
</g>
</svg>
