<?xml version="1.0" encoding="utf-8"?>
<!-- Generator: Adobe Illustrator 19.0.0, SVG Export Plug-In . SVG Version: 6.00 Build 0)  -->
<svg version="1.1" id="Layer_1" xmlns="http://www.w3.org/2000/svg" xmlns:xlink="http://www.w3.org/1999/xlink" x="0px" y="0px"
	 viewBox="0 0 191.9 288.8" style="enable-background:new 0 0 191.9 288.8;" xml:space="preserve">
<style type="text/css">
	.st0{fill:#0C0C0C;}
	.st1{fill:#161616;}
</style>
<path class="st0" d="M0,229.3c0.7-2.8,1.4-6.1,2.2-9.4c1.1-4.8,2.2-9.7,3.4-14.5c1.1-4.8,2.2-9.6,3.3-14.3c1.1-4.8,2.3-9.7,3.4-14.5
	c1.2-5,2.3-9.9,3.5-14.9c1.1-4.7,2.2-9.4,3.3-14.2c1.1-4.8,2.2-9.6,3.3-14.4c0.9-3.7,1.8-7.4,2.6-11.1c1.1-4.8,2.1-9.7,3.3-14.6
	c1.1-4.8,2.6-9.5,3.4-14.3c0.6-3.7,2.4-6.6,4.5-9.4C43,73.9,49.9,64,56.8,54.1C62.5,46,68.3,38,73.9,29.9c5.5-7.9,11-15.8,16.6-23.7
	c1.3-1.8,2.6-3.5,3.8-5.3c0.9-1.3,2.1-1.3,3.2,0.2c2.9,4,5.8,8.1,8.6,12.1c3.5,4.9,6.9,9.7,10.4,14.6c3.8,5.3,7.5,10.7,11.3,16
	c3.4,4.8,6.7,9.5,10.1,14.3c5.2,7.3,10.3,14.6,15.5,21.9c1.3,1.8,2.4,3.9,3.9,5.4c2.6,2.6,2.7,6.1,3.5,9.3c1.3,5,2.3,10,3.5,15.1
	c1.1,4.7,2.2,9.5,3.3,14.2c1.2,5,2.3,9.9,3.5,14.9c1.1,4.8,2.2,9.7,3.3,14.6c1.1,4.9,2.3,9.8,3.5,14.7c1.1,4.7,2.2,9.5,3.2,14.2
	c1.2,5,2.3,10,3.5,15.1c1.1,4.8,2.2,9.6,3.3,14.4c1.1,4.9,2.3,9.8,3.4,14.7c0.3,1.1,0.5,2.2,0.6,3.3c0.2,1.2-0.8,1.7-1.5,2.1
	c-16,9.6-32,19.2-47.9,28.9c-14.1,8.5-28.1,17-42.1,25.6c-5.4,3.4-4,3-9.4-0.3c-4.8-2.8-9.5-5.9-14.3-8.8
	c-6.1-3.7-12.2-7.4-18.3-11.1c-10.3-6.2-20.5-12.5-30.8-18.8c-8.2-5-16.4-10-24.6-15c-0.7-0.4-1.4-0.8-2.1-1.3
	C0.2,231-0.1,230.5,0,229.3z M95.8,228.4C95.8,228.4,95.8,228.3,95.8,228.4c5.2,0,10.4,0,15.6,0c1.1,0,1.8-0.3,2.1-1.4
	c1.5-4.9,3.1-9.7,4.6-14.6c2.1-6.7,4.2-13.5,6.3-20.2c2.1-6.7,4.3-13.3,6.4-20c2.5-7.7,4.8-15.4,7.4-23c1.2-3.6,1.5-6.6-0.9-10.3
	c-6.8-10.8-13.1-21.9-19.6-32.9c-6.8-11.6-13.7-23.2-20.5-34.8c-1.3-2.2-1.5-2.3-2.8-0.1C89,80.3,83.7,89.5,78.3,98.7
	c-4.1,7-8.2,14-12.3,21c-4.4,7.5-8.8,15-13.2,22.5c-0.5,0.9-0.7,1.7-0.3,2.8c0.8,1.9,1.2,3.9,1.8,5.9c1.8,5.9,3.7,11.7,5.5,17.6
	c2.1,6.7,4.3,13.5,6.4,20.2c1.9,5.9,3.7,11.8,5.6,17.7c2.1,6.7,4.4,13.5,6.4,20.2c0.4,1.4,1.1,1.9,2.5,1.8
	C85.8,228.3,90.8,228.4,95.8,228.4z M141,139.3c0.7-1.5,1-2.8,1.4-4c1.9-6.2,3.8-12.3,5.7-18.5c2.5-8.1,5-16.2,7.3-24.4
	c0.4-1.3,1.3-2.6,0.1-4.3c-5.2-7-10.3-14.2-15.3-21.3c-6.3-9-12.6-18-19-27c-3.4-4.9-7-9.7-10.4-14.5c-3.8-5.4-7.6-10.9-11.5-16.3
	c-0.3-0.5-0.6-1.3-1.3-1.1C97,8.1,97.4,9,97.4,9.6c0,17.9,0,35.9,0,53.8c0,1.2,0.2,2.3,0.9,3.4c6,10.2,12,20.4,18,30.6
	c3.9,6.6,7.7,13.1,11.6,19.7C132.2,124.4,136.5,131.7,141,139.3z M50.8,139.4c2.6-4.4,4.9-8.4,7.3-12.3c5.6-9.6,11.2-19.3,16.9-28.9
	c5.8-9.8,11.6-19.6,17.3-29.5c0.9-1.6,2-3,2-5.1C94.2,45.4,94.2,27.2,94.2,9c0-0.6,0.3-1.3-0.4-1.7c-0.1,0.1-0.3,0.1-0.3,0.2
	C88,15.3,82.4,23,77,30.8c-6.8,9.7-13.5,19.3-20.3,29C50.5,68.6,44.3,77.3,38,86.1c-1.5,2.2-2.5,4.2-1.1,6.8c0.5,0.9,0.6,2,0.9,3
	c1.6,5.5,3.3,10.9,4.9,16.4c1.6,5.5,3.2,10.9,4.9,16.4C48.6,132.2,49.7,135.6,50.8,139.4z M152,228.3c11.2,0,22.4,0,33.5,0
	c2.1,0,2.1,0,1.1-1.8c-4.7-8.4-9.4-16.9-14.2-25.3c-5.5-9.8-11-19.5-16.6-29.3c-4.3-7.7-8.7-15.3-13-23c-0.2-0.4-0.4-1-1-0.9
	c-0.7,0.1-0.5,0.8-0.6,1.2c-0.6,1.8-1.2,3.7-1.8,5.5c-1.9,6-3.8,11.9-5.7,17.9c-1.9,6-3.8,12.1-5.7,18.1c-1.8,5.9-3.7,11.7-5.5,17.6
	c-1.9,5.9-3.7,11.8-5.6,17.7c-0.7,2.1-0.7,2.3,1.5,2.3C129.7,228.3,140.9,228.3,152,228.3z M39.9,228.3c11.2,0,22.5,0,33.7,0
	c1.2,0,2.1-0.1,1.6-1.6c-1.3-4-2.5-8-3.8-12.1c-1.9-6-3.9-11.9-5.7-17.9c-2.4-7.5-4.6-15-7-22.6c-2.6-8.4-5.4-16.8-8-25.2
	c-0.1-0.4-0.1-0.9-0.6-1c-0.5-0.1-0.7,0.4-0.9,0.8c-1.9,3.5-3.9,6.9-5.9,10.3c-6.5,11.4-13,22.9-19.4,34.3
	c-6.2,11-12.3,22-18.4,32.9c-1.1,1.9-1.1,1.9,1.2,1.9C17.7,228.3,28.8,228.3,39.9,228.3z M7.8,231.9c1.8,1.1,3.6,2.2,5.4,3.3
	c7.3,4.5,14.6,8.9,21.9,13.4c8.7,5.3,17.4,10.6,26.1,15.9c5.5,3.4,11,6.7,16.5,10.1c4.5,2.8,9.1,5.6,13.7,8.3
	c0.4,0.2,0.8,0.5,1.2,0.3c0.5-0.3,0.2-0.8,0.1-1.2c-0.3-1.1-0.6-2.1-1-3.2c-2.4-7.5-4.8-15-7.2-22.5c-2.5-7.7-5-15.5-7.3-23.2
	c-0.4-1.5-1.1-1.6-2.3-1.6c-21.7,0-43.4,0-65,0C9.1,231.4,8.5,231.2,7.8,231.9z M184.3,231.9c-0.9-0.6-1.6-0.4-2.2-0.4
	c-7.1,0-14.1,0-21.2,0c-14.6,0-29.1,0-43.7,0c-1.3,0-2.2,0-2.5,1.7c-0.3,1.6-1,3.2-1.5,4.8c-2.2,6.7-4.3,13.5-6.5,20.2
	c-1.9,5.9-3.8,11.8-5.7,17.7c-0.8,2.6-1.6,5.1-2.5,8.2C127.4,266.4,155.7,249.2,184.3,231.9z M185.8,217.4c-0.4-3.5-1.4-6.7-2.1-10
	c-1.1-4.9-2.3-9.7-3.4-14.5c-1.1-4.8-2.2-9.7-3.3-14.5c-1.2-5-2.3-10-3.5-15.1c-0.9-3.8-1.8-7.5-2.6-11.3c-1.1-4.8-2.2-9.7-3.3-14.5
	c-1.1-4.8-2.2-9.7-3.3-14.5c-1.1-5-2.3-9.9-3.4-14.9c-0.8-3.5-1.6-7-2.4-10.5c-0.1-0.4-0.3-0.9-0.7-1c-0.6-0.1-0.5,0.6-0.6,0.9
	c-0.8,2.8-1.7,5.6-2.5,8.4c-1.9,6.2-3.8,12.5-5.7,18.7c-1.7,5.5-3.3,10.9-5,16.4c-0.4,1.3-0.6,2.5,0.2,3.9
	c5.3,9.1,10.4,18.3,15.6,27.5c8.2,14.5,16.4,29.1,24.6,43.6C184.5,216.4,184.7,217.1,185.8,217.4z M34.6,95.9c-0.1,0-0.3,0-0.4,0
	C24.8,136.3,15.4,176.7,6,217.2c0.9,0.1,1-0.3,1.2-0.5c2.1-3.7,4.2-7.5,6.3-11.2c6.9-12.1,13.8-24.3,20.6-36.4
	c4.4-7.8,8.9-15.6,13.3-23.5c0.7-1.3,1.4-2.5,0.9-4c-1.6-5.3-3.2-10.7-4.8-16c-1.6-5.5-3.3-11.1-4.9-16.6
	C37.2,104.6,35.9,100.3,34.6,95.9z M96,281.6c1.7-5.5,3.3-10.4,4.9-15.4c1.9-5.8,3.8-11.7,5.6-17.5c1.7-5.3,3.3-10.5,5-15.8
	c0.3-1,0.3-1.5-0.9-1.5c-9.8,0-19.6,0-29.4,0c-1.1,0-1.2,0.3-0.9,1.3c1.2,3.5,2.3,7.1,3.4,10.6c1.9,6,3.8,11.9,5.7,17.9
	c1.4,4.4,2.7,8.8,4.1,13.1C94.2,276.7,94.5,279.1,96,281.6z M6.2,218.1c0,0-0.1-0.1-0.1-0.1c0,0-0.1,0.1-0.1,0.1
	c0.1,0,0.1,0.1,0.2,0.1C6.2,218.2,6.2,218.1,6.2,218.1z M185.9,218.2c0,0,0.1-0.1,0.1-0.1c0,0-0.1-0.1-0.1-0.1
	c0,0.1-0.1,0.1-0.1,0.2C185.8,218.2,185.8,218.2,185.9,218.2z"/>
<path class="st1" d="M216.5,450.8c0,0,0,0.1-0.1,0.1c-0.1,0-0.1-0.1-0.2-0.1c0,0,0.1-0.1,0.1-0.1
	C216.4,450.7,216.4,450.7,216.5,450.8z"/>
<path class="st1" d="M396.2,450.9c0,0-0.1,0-0.1-0.1c0-0.1,0.1-0.1,0.1-0.2c0,0,0.1,0.1,0.1,0.1
	C396.3,450.9,396.2,450.9,396.2,450.9z"/>
</svg>
